<?xml version="1.0" encoding="UTF-8" standalone="no"?>
<!DOCTYPE svg PUBLIC "-//W3C//DTD SVG 1.1//EN"
 "http://www.w3.org/Graphics/SVG/1.1/DTD/svg11.dtd">
<!-- Generated by graphviz version 14.1.4 (20260321.0153)
 -->
<!-- Title: cda2_pipeline Pages: 1 -->
<svg width="2187pt" height="384pt"
 viewBox="0.00 0.00 2187.00 384.00" xmlns="http://www.w3.org/2000/svg" xmlns:xlink="http://www.w3.org/1999/xlink">
<g id="graph0" class="graph" transform="scale(1 1) rotate(0) translate(4 380)">
<title>cda2_pipeline</title>
<polygon fill="white" stroke="none" points="-4,4 -4,-380 2183.05,-380 2183.05,4 -4,4"/>
<g id="clust1" class="cluster">
<title>cluster_preprocess</title>
<polygon fill="none" stroke="#aaaaaa" stroke-dasharray="5,2" points="295.75,-150 295.75,-226 1038,-226 1038,-150 295.75,-150"/>
<text xml:space="preserve" text-anchor="middle" x="338.25" y="-211.55" font-family="Helvetica,sans-Serif" font-size="11.00">Preprocessing</text>
</g>
<g id="clust2" class="cluster">
<title>cluster_reduction</title>
<polygon fill="none" stroke="#aaaaaa" stroke-dasharray="5,2" points="1072,-74 1072,-302 1227,-302 1227,-74 1072,-74"/>
<text xml:space="preserve" text-anchor="middle" x="1140.75" y="-287.55" font-family="Helvetica,sans-Serif" font-size="11.00">Dimensionality Reduction</text>
</g>
<g id="clust4" class="cluster">
<title>cluster_clustering</title>
<polygon fill="none" stroke="#aaaaaa" stroke-dasharray="5,2" points="1321.8,-8 1321.8,-368 1473.8,-368 1473.8,-8 1321.8,-8"/>
<text xml:space="preserve" text-anchor="middle" x="1354.18" y="-353.55" font-family="Helvetica,sans-Serif" font-size="11.00">Clustering</text>
</g>
<g id="clust7" class="cluster">
<title>cluster_legend</title>
<polygon fill="none" stroke="#aaaaaa" stroke-dasharray="5,2" points="72.07,-324 72.07,-354 1204.3,-354 1204.3,-324 72.07,-324"/>
</g>
<!-- input -->
<g id="node1" class="node">
<title>input</title>
<polygon fill="#e8e8e8" stroke="black" points="253.75,-198 0,-198 0,-158 253.75,-158 253.75,-198"/>
<text xml:space="preserve" text-anchor="start" x="83.75" y="-183.6" font-family="Helvetica,sans-Serif" font-weight="bold" font-size="12.00">HR_data_2.csv</text>
<text xml:space="preserve" text-anchor="start" x="22.62" y="-173.5" font-family="Helvetica,sans-Serif" font-size="10.00">312 obs (26 participants × 4 rounds × 3 phases)</text>
<text xml:space="preserve" text-anchor="start" x="8" y="-163.5" font-family="Helvetica,sans-Serif" font-size="10.00">71 columns (51 biosignal + 20 metadata/questionnaire)</text>
</g>
<!-- exclude -->
<g id="node2" class="node">
<title>exclude</title>
<polygon fill="#c8e6c9" stroke="black" points="457,-196 303.75,-196 303.75,-160 457,-160 457,-196"/>
<text xml:space="preserve" text-anchor="start" x="357.13" y="-178.6" font-family="Helvetica,sans-Serif" font-weight="bold" font-size="12.00">Exclude</text>
<text xml:space="preserve" text-anchor="start" x="311.75" y="-168.5" font-family="Helvetica,sans-Serif" font-size="10.00">metadata + questionnaire items</text>
</g>
<!-- input&#45;&gt;exclude -->
<g id="edge13" class="edge">
<title>input&#45;&gt;exclude</title>
<path fill="none" stroke="black" d="M253.99,-178C266.94,-178 279.89,-178 292.28,-178"/>
<polygon fill="black" stroke="black" points="291.97,-181.5 301.97,-178 291.97,-174.5 291.97,-181.5"/>
</g>
<!-- impute -->
<g id="node3" class="node">
<title>impute</title>
<polygon fill="#c8e6c9" stroke="black" points="633.25,-196 507,-196 507,-160 633.25,-160 633.25,-196"/>
<text xml:space="preserve" text-anchor="start" x="539.75" y="-178.6" font-family="Helvetica,sans-Serif" font-weight="bold" font-size="12.00">Imputation</text>
<text xml:space="preserve" text-anchor="start" x="515" y="-168.5" font-family="Helvetica,sans-Serif" font-size="10.00">within&#45;Phase group mean</text>
</g>
<!-- exclude&#45;&gt;impute -->
<g id="edge1" class="edge">
<title>exclude&#45;&gt;impute</title>
<path fill="none" stroke="black" d="M457.47,-178C470,-178 482.97,-178 495.44,-178"/>
<polygon fill="black" stroke="black" points="495.21,-181.5 505.21,-178 495.21,-174.5 495.21,-181.5"/>
</g>
<!-- dedup -->
<g id="node4" class="node">
<title>dedup</title>
<polygon fill="#c8e6c9" stroke="black" points="826,-196 683.25,-196 683.25,-160 826,-160 826,-196"/>
<text xml:space="preserve" text-anchor="start" x="691.25" y="-178.6" font-family="Helvetica,sans-Serif" font-weight="bold" font-size="12.00">Redundancy Removal</text>
<text xml:space="preserve" text-anchor="start" x="724.63" y="-168.5" font-family="Helvetica,sans-Serif" font-size="10.00">drop |r| &gt; 0.95</text>
</g>
<!-- impute&#45;&gt;dedup -->
<g id="edge2" class="edge">
<title>impute&#45;&gt;dedup</title>
<path fill="none" stroke="black" d="M633.68,-178C645.97,-178 659.03,-178 671.84,-178"/>
<polygon fill="black" stroke="black" points="671.5,-181.5 681.5,-178 671.5,-174.5 671.5,-181.5"/>
</g>
<!-- norm -->
<g id="node5" class="node">
<title>norm</title>
<polygon fill="#c8e6c9" stroke="black" points="1030,-198 876,-198 876,-158 1030,-158 1030,-198"/>
<text xml:space="preserve" text-anchor="start" x="884" y="-183.6" font-family="Helvetica,sans-Serif" font-weight="bold" font-size="12.00">Individual Normalisation</text>
<text xml:space="preserve" text-anchor="start" x="904.63" y="-173.5" font-family="Helvetica,sans-Serif" font-size="10.00">z&#45;score per participant</text>
<text xml:space="preserve" text-anchor="start" x="917.38" y="-163.5" font-family="Helvetica,sans-Serif" font-style="italic" font-size="10.00">states, not traits</text>
</g>
<!-- dedup&#45;&gt;norm -->
<g id="edge3" class="edge">
<title>dedup&#45;&gt;norm</title>
<path fill="none" stroke="black" d="M826.24,-178C838.66,-178 851.72,-178 864.53,-178"/>
<polygon fill="black" stroke="black" points="864.19,-181.5 874.19,-178 864.19,-174.5 864.19,-181.5"/>
</g>
<!-- pca -->
<g id="node6" class="node">
<title>pca</title>
<polygon fill="#d1c4e9" stroke="black" points="1190.88,-122 1108.13,-122 1108.13,-82 1190.88,-82 1190.88,-122"/>
<text xml:space="preserve" text-anchor="start" x="1136.38" y="-107.6" font-family="Helvetica,sans-Serif" font-weight="bold" font-size="12.00">PCA</text>
<text xml:space="preserve" text-anchor="start" x="1116.13" y="-97.5" font-family="Helvetica,sans-Serif" font-size="10.00">16 components</text>
<text xml:space="preserve" text-anchor="start" x="1117.25" y="-87.5" font-family="Helvetica,sans-Serif" font-size="10.00">≥80% variance</text>
</g>
<!-- norm&#45;&gt;pca -->
<g id="edge14" class="edge">
<title>norm&#45;&gt;pca</title>
<path fill="none" stroke="black" d="M1006.38,-157.53C1034.61,-146.5 1069.31,-132.94 1097.35,-121.98"/>
<polygon fill="black" stroke="black" points="1098.3,-125.37 1106.34,-118.47 1095.75,-118.85 1098.3,-125.37"/>
</g>
<!-- spca -->
<g id="node7" class="node">
<title>spca</title>
<polygon fill="#d1c4e9" stroke="black" points="1202.5,-198 1096.5,-198 1096.5,-158 1202.5,-158 1202.5,-198"/>
<text xml:space="preserve" text-anchor="start" x="1116.13" y="-183.6" font-family="Helvetica,sans-Serif" font-weight="bold" font-size="12.00">SparsePCA</text>
<text xml:space="preserve" text-anchor="start" x="1104.5" y="-173.5" font-family="Helvetica,sans-Serif" font-size="10.00">16 components, α=1</text>
<text xml:space="preserve" text-anchor="start" x="1108.63" y="-163.5" font-family="Helvetica,sans-Serif" font-size="10.00">L1&#45;sparse loadings</text>
</g>
<!-- norm&#45;&gt;spca -->
<g id="edge15" class="edge">
<title>norm&#45;&gt;spca</title>
<path fill="none" stroke="black" d="M1030.31,-178C1048.39,-178 1067.47,-178 1084.91,-178"/>
<polygon fill="black" stroke="black" points="1084.59,-181.5 1094.59,-178 1084.59,-174.5 1084.59,-181.5"/>
</g>
<!-- umap -->
<g id="node8" class="node">
<title>umap</title>
<polygon fill="#d1c4e9" stroke="black" points="1219,-274 1080,-274 1080,-234 1219,-234 1219,-274"/>
<text xml:space="preserve" text-anchor="start" x="1131.5" y="-259.6" font-family="Helvetica,sans-Serif" font-weight="bold" font-size="12.00">UMAP</text>
<text xml:space="preserve" text-anchor="start" x="1116.13" y="-249.5" font-family="Helvetica,sans-Serif" font-size="10.00">10 components</text>
<text xml:space="preserve" text-anchor="start" x="1088" y="-239.5" font-family="Helvetica,sans-Serif" font-size="10.00">n_neighbors=50, min_dist=0</text>
</g>
<!-- norm&#45;&gt;umap -->
<g id="edge16" class="edge">
<title>norm&#45;&gt;umap</title>
<path fill="none" stroke="black" d="M1006.38,-198.47C1030.79,-208.01 1060.04,-219.44 1085.64,-229.44"/>
<polygon fill="black" stroke="black" points="1084.37,-232.7 1094.96,-233.08 1086.92,-226.18 1084.37,-232.7"/>
</g>
<!-- hub_red -->
<g id="node9" class="node">
<title>hub_red</title>
<ellipse fill="#888888" stroke="black" cx="1274.4" cy="-178" rx="5.4" ry="5.4"/>
</g>
<!-- pca&#45;&gt;hub_red -->
<g id="edge17" class="edge">
<title>pca&#45;&gt;hub_red</title>
<path fill="none" stroke="black" d="M1190.99,-122.11C1209.34,-131.23 1227,-140 1227,-140 1227,-140 1258.82,-166.06 1269.76,-175.02"/>
</g>
<!-- spca&#45;&gt;hub_red -->
<g id="edge18" class="edge">
<title>spca&#45;&gt;hub_red</title>
<path fill="none" stroke="black" d="M1202.98,-178C1229.07,-178 1257.38,-178 1268.51,-178"/>
</g>
<!-- umap&#45;&gt;hub_red -->
<g id="edge19" class="edge">
<title>umap&#45;&gt;hub_red</title>
<path fill="none" stroke="black" d="M1191.44,-233.67C1209.63,-224.63 1227,-216 1227,-216 1227,-216 1258.82,-189.94 1269.76,-180.98"/>
</g>
<!-- hier -->
<g id="node10" class="node">
<title>hier</title>
<polygon fill="#ffcdd2" stroke="black" points="1439.93,-340 1355.68,-340 1355.68,-304 1439.93,-304 1439.93,-340"/>
<text xml:space="preserve" text-anchor="start" x="1363.68" y="-322.6" font-family="Helvetica,sans-Serif" font-weight="bold" font-size="12.00">Hierarchical</text>
<text xml:space="preserve" text-anchor="start" x="1369.68" y="-312.5" font-family="Helvetica,sans-Serif" font-size="10.00">Ward linkage</text>
</g>
<!-- hub_red&#45;&gt;hier -->
<g id="edge20" class="edge">
<title>hub_red&#45;&gt;hier</title>
<path fill="none" stroke="black" d="M1277.51,-182.92C1286.59,-204.05 1321.8,-286 1321.8,-286 1321.8,-286 1333.79,-291.76 1348.19,-298.67"/>
<polygon fill="black" stroke="black" points="1346.53,-301.75 1357.06,-302.92 1349.56,-295.44 1346.53,-301.75"/>
</g>
<!-- kmeans -->
<g id="node11" class="node">
<title>kmeans</title>
<polygon fill="#ffcdd2" stroke="black" points="1430.93,-268 1364.68,-268 1364.68,-232 1430.93,-232 1430.93,-268"/>
<text xml:space="preserve" text-anchor="start" x="1372.68" y="-245.97" font-family="Helvetica,sans-Serif" font-weight="bold" font-size="12.00">K&#45;Means</text>
</g>
<!-- hub_red&#45;&gt;kmeans -->
<g id="edge21" class="edge">
<title>hub_red&#45;&gt;kmeans</title>
<path fill="none" stroke="black" d="M1279.36,-181.07C1290.58,-189.78 1321.8,-214 1321.8,-214 1321.8,-214 1337.47,-221.52 1354.49,-229.69"/>
<polygon fill="black" stroke="black" points="1352.66,-232.7 1363.19,-233.87 1355.69,-226.39 1352.66,-232.7"/>
</g>
<!-- kmed -->
<g id="node12" class="node">
<title>kmed</title>
<polygon fill="#ffcdd2" stroke="black" points="1436.55,-196 1359.05,-196 1359.05,-160 1436.55,-160 1436.55,-196"/>
<text xml:space="preserve" text-anchor="start" x="1367.05" y="-178.6" font-family="Helvetica,sans-Serif" font-weight="bold" font-size="12.00">K&#45;Medoids</text>
<text xml:space="preserve" text-anchor="start" x="1387.68" y="-168.5" font-family="Helvetica,sans-Serif" font-size="10.00">PAM</text>
</g>
<!-- hub_red&#45;&gt;kmed -->
<g id="edge22" class="edge">
<title>hub_red&#45;&gt;kmed</title>
<path fill="none" stroke="black" d="M1280.01,-178C1291.23,-178 1320.98,-178 1347.65,-178"/>
<polygon fill="black" stroke="black" points="1347.31,-181.5 1357.31,-178 1347.31,-174.5 1347.31,-181.5"/>
</g>
<!-- gmm -->
<g id="node13" class="node">
<title>gmm</title>
<polygon fill="#ffcdd2" stroke="black" points="1450.43,-124 1345.18,-124 1345.18,-88 1450.43,-88 1450.43,-124"/>
<text xml:space="preserve" text-anchor="start" x="1383.55" y="-106.6" font-family="Helvetica,sans-Serif" font-weight="bold" font-size="12.00">GMM</text>
<text xml:space="preserve" text-anchor="start" x="1353.18" y="-96.5" font-family="Helvetica,sans-Serif" font-size="10.00">full / tied / diag / sph</text>
</g>
<!-- hub_red&#45;&gt;gmm -->
<g id="edge23" class="edge">
<title>hub_red&#45;&gt;gmm</title>
<path fill="none" stroke="black" d="M1279.36,-174.93C1290.58,-166.22 1321.8,-142 1321.8,-142 1321.8,-142 1333.79,-136.24 1348.19,-129.33"/>
<polygon fill="black" stroke="black" points="1349.56,-132.56 1357.06,-125.08 1346.53,-126.25 1349.56,-132.56"/>
</g>
<!-- dbscan -->
<g id="node14" class="node">
<title>dbscan</title>
<polygon fill="#ffcdd2" stroke="black" points="1465.8,-52 1329.8,-52 1329.8,-16 1465.8,-16 1465.8,-52"/>
<text xml:space="preserve" text-anchor="start" x="1371.18" y="-34.6" font-family="Helvetica,sans-Serif" font-weight="bold" font-size="12.00">DBSCAN</text>
<text xml:space="preserve" text-anchor="start" x="1337.8" y="-24.5" font-family="Helvetica,sans-Serif" font-size="10.00">grid search ε, min_samples</text>
</g>
<!-- hub_red&#45;&gt;dbscan -->
<g id="edge24" class="edge">
<title>hub_red&#45;&gt;dbscan</title>
<path fill="none" stroke="black" d="M1277.51,-173.08C1286.59,-151.95 1321.8,-70 1321.8,-70 1321.8,-70 1333.79,-64.24 1348.19,-57.33"/>
<polygon fill="black" stroke="black" points="1349.56,-60.56 1357.06,-53.08 1346.53,-54.25 1349.56,-60.56"/>
</g>
<!-- kselect_sil -->
<g id="node15" class="node">
<title>kselect_sil</title>
<polygon fill="#fff9c4" stroke="black" points="1681.05,-237 1515.8,-237 1515.8,-197 1681.05,-197 1681.05,-237"/>
<text xml:space="preserve" text-anchor="start" x="1566.55" y="-222.6" font-family="Helvetica,sans-Serif" font-weight="bold" font-size="12.00">k&#45;Selection</text>
<text xml:space="preserve" text-anchor="start" x="1563.18" y="-212.5" font-family="Helvetica,sans-Serif" font-size="10.00">Silhouette score</text>
<text xml:space="preserve" text-anchor="start" x="1523.8" y="-202.5" font-family="Helvetica,sans-Serif" font-size="10.00">Hierarchical, K&#45;Means, K&#45;Medoids</text>
</g>
<!-- hier&#45;&gt;kselect_sil -->
<g id="edge25" class="edge">
<title>hier&#45;&gt;kselect_sil</title>
<path fill="none" stroke="black" d="M1437.18,-303.58C1455.63,-294.72 1473.8,-286 1473.8,-286 1473.8,-286 1516.19,-262.34 1551.33,-242.73"/>
<polygon fill="black" stroke="black" points="1552.65,-246 1559.68,-238.07 1549.24,-239.88 1552.65,-246"/>
</g>
<!-- kmeans&#45;&gt;hier -->
<!-- kmeans&#45;&gt;kselect_sil -->
<g id="edge26" class="edge">
<title>kmeans&#45;&gt;kselect_sil</title>
<path fill="none" stroke="black" d="M1431.15,-244.62C1451.16,-241.3 1477.95,-236.85 1504.18,-232.49"/>
<polygon fill="black" stroke="black" points="1504.58,-235.97 1513.87,-230.88 1503.43,-229.07 1504.58,-235.97"/>
</g>
<!-- kmed&#45;&gt;kmeans -->
<!-- kmed&#45;&gt;kselect_sil -->
<g id="edge27" class="edge">
<title>kmed&#45;&gt;kselect_sil</title>
<path fill="none" stroke="black" d="M1436.63,-185.43C1455.87,-189.21 1480.18,-193.98 1504.04,-198.66"/>
<polygon fill="black" stroke="black" points="1503.35,-202.09 1513.83,-200.59 1504.69,-195.23 1503.35,-202.09"/>
</g>
<!-- gmm&#45;&gt;kmed -->
<!-- kselect_bic -->
<g id="node16" class="node">
<title>kselect_bic</title>
<polygon fill="#fff9c4" stroke="black" points="1638.3,-127 1558.55,-127 1558.55,-87 1638.3,-87 1638.3,-127"/>
<text xml:space="preserve" text-anchor="start" x="1566.55" y="-112.6" font-family="Helvetica,sans-Serif" font-weight="bold" font-size="12.00">k&#45;Selection</text>
<text xml:space="preserve" text-anchor="start" x="1589.8" y="-102.5" font-family="Helvetica,sans-Serif" font-size="10.00">BIC</text>
<text xml:space="preserve" text-anchor="start" x="1586.43" y="-92.5" font-family="Helvetica,sans-Serif" font-size="10.00">GMM</text>
</g>
<!-- gmm&#45;&gt;kselect_bic -->
<g id="edge28" class="edge">
<title>gmm&#45;&gt;kselect_bic</title>
<path fill="none" stroke="black" d="M1450.73,-106.26C1480.46,-106.41 1517.59,-106.6 1547.06,-106.75"/>
<polygon fill="black" stroke="black" points="1546.82,-110.25 1556.84,-106.8 1546.86,-103.25 1546.82,-110.25"/>
</g>
<!-- dbscan&#45;&gt;gmm -->
<!-- assignments -->
<g id="node17" class="node">
<title>assignments</title>
<polygon fill="#e8e8e8" stroke="black" points="1966.8,-165 1731.05,-165 1731.05,-125 1966.8,-125 1966.8,-165"/>
<text xml:space="preserve" text-anchor="start" x="1789.3" y="-150.6" font-family="Helvetica,sans-Serif" font-weight="bold" font-size="12.00">Cluster Assignments</text>
<text xml:space="preserve" text-anchor="start" x="1739.05" y="-140.5" font-family="Helvetica,sans-Serif" font-size="10.00">hard labels (K&#45;Means, K&#45;Medoids, Hier, DBSCAN)</text>
<text xml:space="preserve" text-anchor="start" x="1796.8" y="-130.5" font-family="Helvetica,sans-Serif" font-size="10.00">soft probabilities (GMM)</text>
</g>
<!-- dbscan&#45;&gt;assignments -->
<g id="edge29" class="edge">
<title>dbscan&#45;&gt;assignments</title>
<path fill="none" stroke="black" d="M1466.05,-42.34C1549.53,-52.69 1681.05,-69 1681.05,-69 1681.05,-69 1744.17,-97.75 1792.77,-119.88"/>
<polygon fill="black" stroke="black" points="1791.28,-123.05 1801.83,-124.01 1794.18,-116.68 1791.28,-123.05"/>
</g>
<!-- kselect_sil&#45;&gt;assignments -->
<g id="edge30" class="edge">
<title>kselect_sil&#45;&gt;assignments</title>
<path fill="none" stroke="black" d="M1669.97,-196.56C1700.01,-187.86 1735.23,-177.65 1766.37,-168.63"/>
<polygon fill="black" stroke="black" points="1767.12,-172.06 1775.75,-165.91 1765.17,-165.33 1767.12,-172.06"/>
</g>
<!-- kselect_bic&#45;&gt;assignments -->
<g id="edge31" class="edge">
<title>kselect_bic&#45;&gt;assignments</title>
<path fill="none" stroke="black" d="M1638.53,-112.98C1660.71,-116.37 1689.86,-120.83 1719.34,-125.34"/>
<polygon fill="black" stroke="black" points="1718.73,-128.78 1729.14,-126.84 1719.79,-121.86 1718.73,-128.78"/>
</g>
<!-- ext_eval -->
<g id="node18" class="node">
<title>ext_eval</title>
<polygon fill="#b2ebf2" stroke="black" points="2179.05,-203 2016.8,-203 2016.8,-163 2179.05,-163 2179.05,-203"/>
<text xml:space="preserve" text-anchor="start" x="2042.43" y="-188.6" font-family="Helvetica,sans-Serif" font-weight="bold" font-size="12.00">External Evaluation</text>
<text xml:space="preserve" text-anchor="start" x="2089.3" y="-178.5" font-family="Helvetica,sans-Serif" font-size="10.00">ARI</text>
<text xml:space="preserve" text-anchor="start" x="2024.8" y="-168.5" font-family="Helvetica,sans-Serif" font-size="10.00">vs Phase / Round / Cohort / Role</text>
</g>
<!-- assignments&#45;&gt;ext_eval -->
<g id="edge32" class="edge">
<title>assignments&#45;&gt;ext_eval</title>
<path fill="none" stroke="black" d="M1967.28,-163.05C1980.05,-165.02 1992.9,-167 2005.3,-168.9"/>
<polygon fill="black" stroke="black" points="2004.63,-172.34 2015.05,-170.4 2005.7,-165.42 2004.63,-172.34"/>
</g>
<!-- disc -->
<g id="node19" class="node">
<title>disc</title>
<polygon fill="#ffe0b2" stroke="black" points="2173.05,-127 2022.8,-127 2022.8,-87 2173.05,-87 2173.05,-127"/>
<text xml:space="preserve" text-anchor="start" x="2030.8" y="-112.6" font-family="Helvetica,sans-Serif" font-weight="bold" font-size="12.00">Feature Discriminability</text>
<text xml:space="preserve" text-anchor="start" x="2033.05" y="-102.5" font-family="Helvetica,sans-Serif" font-size="10.00">Mann&#45;Whitney U + Cohen&#39;s d</text>
<text xml:space="preserve" text-anchor="start" x="2031.55" y="-92.5" font-family="Helvetica,sans-Serif" font-size="10.00">on original normalised features</text>
</g>
<!-- assignments&#45;&gt;disc -->
<g id="edge33" class="edge">
<title>assignments&#45;&gt;disc</title>
<path fill="none" stroke="black" d="M1967.28,-126.95C1982.11,-124.66 1997.06,-122.36 2011.27,-120.18"/>
<polygon fill="black" stroke="black" points="2011.64,-123.66 2020.99,-118.68 2010.57,-116.74 2011.64,-123.66"/>
</g>
<!-- leg_pre -->
<g id="node20" class="node">
<title>leg_pre</title>
<polygon fill="#c8e6c9" stroke="black" points="173.68,-346.2 80.07,-346.2 80.07,-331.8 173.68,-331.8 173.68,-346.2"/>
<text xml:space="preserve" text-anchor="middle" x="126.88" y="-335.32" font-family="Helvetica,sans-Serif" font-size="9.00">Preprocessing</text>
</g>
<!-- leg_red -->
<g id="node21" class="node">
<title>leg_red</title>
<polygon fill="#d1c4e9" stroke="black" points="427.18,-346.2 333.58,-346.2 333.58,-331.8 427.18,-331.8 427.18,-346.2"/>
<text xml:space="preserve" text-anchor="middle" x="380.38" y="-335.32" font-family="Helvetica,sans-Serif" font-size="9.00">Dim. Reduction</text>
</g>
<!-- leg_pre&#45;&gt;leg_red -->
<!-- leg_cl -->
<g id="node22" class="node">
<title>leg_cl</title>
<polygon fill="#ffcdd2" stroke="black" points="616.93,-346.2 523.33,-346.2 523.33,-331.8 616.93,-331.8 616.93,-346.2"/>
<text xml:space="preserve" text-anchor="middle" x="570.13" y="-335.32" font-family="Helvetica,sans-Serif" font-size="9.00">Clustering</text>
</g>
<!-- leg_red&#45;&gt;leg_cl -->
<!-- leg_k -->
<g id="node23" class="node">
<title>leg_k</title>
<polygon fill="#fff9c4" stroke="black" points="801.43,-346.2 707.83,-346.2 707.83,-331.8 801.43,-331.8 801.43,-346.2"/>
<text xml:space="preserve" text-anchor="middle" x="754.63" y="-335.32" font-family="Helvetica,sans-Serif" font-size="9.00">k&#45;Selection</text>
</g>
<!-- leg_cl&#45;&gt;leg_k -->
<!-- leg_eval -->
<g id="node24" class="node">
<title>leg_eval</title>
<polygon fill="#b2ebf2" stroke="black" points="999.8,-346.2 906.2,-346.2 906.2,-331.8 999.8,-331.8 999.8,-346.2"/>
<text xml:space="preserve" text-anchor="middle" x="953" y="-335.32" font-family="Helvetica,sans-Serif" font-size="9.00">Evaluation</text>
</g>
<!-- leg_k&#45;&gt;leg_eval -->
<!-- leg_disc -->
<g id="node25" class="node">
<title>leg_disc</title>
<polygon fill="#ffe0b2" stroke="black" points="1196.3,-346.2 1102.7,-346.2 1102.7,-331.8 1196.3,-331.8 1196.3,-346.2"/>
<text xml:space="preserve" text-anchor="middle" x="1149.5" y="-335.32" font-family="Helvetica,sans-Serif" font-size="9.00">Discriminability</text>
</g>
<!-- leg_eval&#45;&gt;leg_disc -->
</g>
</svg>
