<?xml version="1.0" encoding="UTF-8" standalone="no"?>
<!DOCTYPE svg PUBLIC "-//W3C//DTD SVG 1.1//EN"
 "http://www.w3.org/Graphics/SVG/1.1/DTD/svg11.dtd">
<!-- Generated by graphviz version 14.1.4 (20260321.0153)
 -->
<!-- Title: cda2_pipeline Pages: 1 -->
<svg width="2158pt" height="384pt"
 viewBox="0.00 0.00 2158.00 384.00" xmlns="http://www.w3.org/2000/svg" xmlns:xlink="http://www.w3.org/1999/xlink">
<g id="graph0" class="graph" transform="scale(1 1) rotate(0) translate(4 380)">
<title>cda2_pipeline</title>
<polygon fill="white" stroke="none" points="-4,4 -4,-380 2153.8,-380 2153.8,4 -4,4"/>
<g id="clust1" class="cluster">
<title>cluster_preprocess</title>
<polygon fill="none" stroke="#aaaaaa" stroke-dasharray="5,2" points="266.5,-150 266.5,-226 1008.75,-226 1008.75,-150 266.5,-150"/>
<text xml:space="preserve" text-anchor="middle" x="309" y="-211.55" font-family="Helvetica,sans-Serif" font-size="11.00">Preprocessing</text>
</g>
<g id="clust2" class="cluster">
<title>cluster_reduction</title>
<polygon fill="none" stroke="#aaaaaa" stroke-dasharray="5,2" points="1042.75,-74 1042.75,-302 1197.75,-302 1197.75,-74 1042.75,-74"/>
<text xml:space="preserve" text-anchor="middle" x="1111.5" y="-287.55" font-family="Helvetica,sans-Serif" font-size="11.00">Dimensionality Reduction</text>
</g>
<g id="clust4" class="cluster">
<title>cluster_clustering</title>
<polygon fill="none" stroke="#aaaaaa" stroke-dasharray="5,2" points="1292.55,-8 1292.55,-368 1444.55,-368 1444.55,-8 1292.55,-8"/>
<text xml:space="preserve" text-anchor="middle" x="1324.93" y="-353.55" font-family="Helvetica,sans-Serif" font-size="11.00">Clustering</text>
</g>
<g id="clust7" class="cluster">
<title>cluster_legend</title>
<polygon fill="none" stroke="#aaaaaa" stroke-dasharray="5,2" points="57.45,-324 57.45,-354 1175.05,-354 1175.05,-324 57.45,-324"/>
</g>
<!-- input -->
<g id="node1" class="node">
<title>input</title>
<polygon fill="#e8e8e8" stroke="black" points="224.5,-198 0,-198 0,-158 224.5,-158 224.5,-198"/>
<text xml:space="preserve" text-anchor="start" x="69.13" y="-183.6" font-family="Helvetica,sans-Serif" font-weight="bold" font-size="12.00">HR_data_2.csv</text>
<text xml:space="preserve" text-anchor="start" x="8" y="-173.5" font-family="Helvetica,sans-Serif" font-size="10.00">312 obs (26 participants × 4 rounds × 3 phases)</text>
<text xml:space="preserve" text-anchor="start" x="67.25" y="-163.5" font-family="Helvetica,sans-Serif" font-size="10.00">51 biosignal features</text>
</g>
<!-- exclude -->
<g id="node2" class="node">
<title>exclude</title>
<polygon fill="#c8e6c9" stroke="black" points="427.75,-196 274.5,-196 274.5,-160 427.75,-160 427.75,-196"/>
<text xml:space="preserve" text-anchor="start" x="327.88" y="-178.6" font-family="Helvetica,sans-Serif" font-weight="bold" font-size="12.00">Exclude</text>
<text xml:space="preserve" text-anchor="start" x="282.5" y="-168.5" font-family="Helvetica,sans-Serif" font-size="10.00">metadata + questionnaire items</text>
</g>
<!-- input&#45;&gt;exclude -->
<g id="edge13" class="edge">
<title>input&#45;&gt;exclude</title>
<path fill="none" stroke="black" d="M224.75,-178C237.52,-178 250.4,-178 262.79,-178"/>
<polygon fill="black" stroke="black" points="262.5,-181.5 272.5,-178 262.5,-174.5 262.5,-181.5"/>
</g>
<!-- impute -->
<g id="node3" class="node">
<title>impute</title>
<polygon fill="#c8e6c9" stroke="black" points="604,-196 477.75,-196 477.75,-160 604,-160 604,-196"/>
<text xml:space="preserve" text-anchor="start" x="510.5" y="-178.6" font-family="Helvetica,sans-Serif" font-weight="bold" font-size="12.00">Imputation</text>
<text xml:space="preserve" text-anchor="start" x="485.75" y="-168.5" font-family="Helvetica,sans-Serif" font-size="10.00">within&#45;Phase group mean</text>
</g>
<!-- exclude&#45;&gt;impute -->
<g id="edge1" class="edge">
<title>exclude&#45;&gt;impute</title>
<path fill="none" stroke="black" d="M428.22,-178C440.75,-178 453.72,-178 466.19,-178"/>
<polygon fill="black" stroke="black" points="465.96,-181.5 475.96,-178 465.96,-174.5 465.96,-181.5"/>
</g>
<!-- dedup -->
<g id="node4" class="node">
<title>dedup</title>
<polygon fill="#c8e6c9" stroke="black" points="796.75,-196 654,-196 654,-160 796.75,-160 796.75,-196"/>
<text xml:space="preserve" text-anchor="start" x="662" y="-178.6" font-family="Helvetica,sans-Serif" font-weight="bold" font-size="12.00">Redundancy Removal</text>
<text xml:space="preserve" text-anchor="start" x="695.38" y="-168.5" font-family="Helvetica,sans-Serif" font-size="10.00">drop |r| &gt; 0.95</text>
</g>
<!-- impute&#45;&gt;dedup -->
<g id="edge2" class="edge">
<title>impute&#45;&gt;dedup</title>
<path fill="none" stroke="black" d="M604.43,-178C616.72,-178 629.78,-178 642.59,-178"/>
<polygon fill="black" stroke="black" points="642.25,-181.5 652.25,-178 642.25,-174.5 642.25,-181.5"/>
</g>
<!-- norm -->
<g id="node5" class="node">
<title>norm</title>
<polygon fill="#c8e6c9" stroke="black" points="1000.75,-198 846.75,-198 846.75,-158 1000.75,-158 1000.75,-198"/>
<text xml:space="preserve" text-anchor="start" x="854.75" y="-183.6" font-family="Helvetica,sans-Serif" font-weight="bold" font-size="12.00">Individual Normalisation</text>
<text xml:space="preserve" text-anchor="start" x="875.38" y="-173.5" font-family="Helvetica,sans-Serif" font-size="10.00">z&#45;score per participant</text>
<text xml:space="preserve" text-anchor="start" x="888.13" y="-163.5" font-family="Helvetica,sans-Serif" font-style="italic" font-size="10.00">states, not traits</text>
</g>
<!-- dedup&#45;&gt;norm -->
<g id="edge3" class="edge">
<title>dedup&#45;&gt;norm</title>
<path fill="none" stroke="black" d="M796.99,-178C809.41,-178 822.47,-178 835.28,-178"/>
<polygon fill="black" stroke="black" points="834.94,-181.5 844.94,-178 834.94,-174.5 834.94,-181.5"/>
</g>
<!-- pca -->
<g id="node6" class="node">
<title>pca</title>
<polygon fill="#d1c4e9" stroke="black" points="1161.63,-122 1078.88,-122 1078.88,-82 1161.63,-82 1161.63,-122"/>
<text xml:space="preserve" text-anchor="start" x="1107.13" y="-107.6" font-family="Helvetica,sans-Serif" font-weight="bold" font-size="12.00">PCA</text>
<text xml:space="preserve" text-anchor="start" x="1086.88" y="-97.5" font-family="Helvetica,sans-Serif" font-size="10.00">16 components</text>
<text xml:space="preserve" text-anchor="start" x="1088" y="-87.5" font-family="Helvetica,sans-Serif" font-size="10.00">≥80% variance</text>
</g>
<!-- norm&#45;&gt;pca -->
<g id="edge14" class="edge">
<title>norm&#45;&gt;pca</title>
<path fill="none" stroke="black" d="M977.13,-157.53C1005.36,-146.5 1040.06,-132.94 1068.1,-121.98"/>
<polygon fill="black" stroke="black" points="1069.05,-125.37 1077.09,-118.47 1066.5,-118.85 1069.05,-125.37"/>
</g>
<!-- spca -->
<g id="node7" class="node">
<title>spca</title>
<polygon fill="#d1c4e9" stroke="black" points="1173.25,-198 1067.25,-198 1067.25,-158 1173.25,-158 1173.25,-198"/>
<text xml:space="preserve" text-anchor="start" x="1086.88" y="-183.6" font-family="Helvetica,sans-Serif" font-weight="bold" font-size="12.00">SparsePCA</text>
<text xml:space="preserve" text-anchor="start" x="1075.25" y="-173.5" font-family="Helvetica,sans-Serif" font-size="10.00">16 components, α=1</text>
<text xml:space="preserve" text-anchor="start" x="1079.38" y="-163.5" font-family="Helvetica,sans-Serif" font-size="10.00">L1&#45;sparse loadings</text>
</g>
<!-- norm&#45;&gt;spca -->
<g id="edge15" class="edge">
<title>norm&#45;&gt;spca</title>
<path fill="none" stroke="black" d="M1001.06,-178C1019.14,-178 1038.22,-178 1055.66,-178"/>
<polygon fill="black" stroke="black" points="1055.34,-181.5 1065.34,-178 1055.34,-174.5 1055.34,-181.5"/>
</g>
<!-- umap -->
<g id="node8" class="node">
<title>umap</title>
<polygon fill="#d1c4e9" stroke="black" points="1189.75,-274 1050.75,-274 1050.75,-234 1189.75,-234 1189.75,-274"/>
<text xml:space="preserve" text-anchor="start" x="1102.25" y="-259.6" font-family="Helvetica,sans-Serif" font-weight="bold" font-size="12.00">UMAP</text>
<text xml:space="preserve" text-anchor="start" x="1086.88" y="-249.5" font-family="Helvetica,sans-Serif" font-size="10.00">10 components</text>
<text xml:space="preserve" text-anchor="start" x="1058.75" y="-239.5" font-family="Helvetica,sans-Serif" font-size="10.00">n_neighbors=50, min_dist=0</text>
</g>
<!-- norm&#45;&gt;umap -->
<g id="edge16" class="edge">
<title>norm&#45;&gt;umap</title>
<path fill="none" stroke="black" d="M977.13,-198.47C1001.54,-208.01 1030.79,-219.44 1056.39,-229.44"/>
<polygon fill="black" stroke="black" points="1055.12,-232.7 1065.71,-233.08 1057.67,-226.18 1055.12,-232.7"/>
</g>
<!-- hub_red -->
<g id="node9" class="node">
<title>hub_red</title>
<ellipse fill="#888888" stroke="black" cx="1245.15" cy="-178" rx="5.4" ry="5.4"/>
</g>
<!-- pca&#45;&gt;hub_red -->
<g id="edge17" class="edge">
<title>pca&#45;&gt;hub_red</title>
<path fill="none" stroke="black" d="M1161.74,-122.11C1180.09,-131.23 1197.75,-140 1197.75,-140 1197.75,-140 1229.57,-166.06 1240.51,-175.02"/>
</g>
<!-- spca&#45;&gt;hub_red -->
<g id="edge18" class="edge">
<title>spca&#45;&gt;hub_red</title>
<path fill="none" stroke="black" d="M1173.73,-178C1199.82,-178 1228.13,-178 1239.26,-178"/>
</g>
<!-- umap&#45;&gt;hub_red -->
<g id="edge19" class="edge">
<title>umap&#45;&gt;hub_red</title>
<path fill="none" stroke="black" d="M1162.19,-233.67C1180.38,-224.63 1197.75,-216 1197.75,-216 1197.75,-216 1229.57,-189.94 1240.51,-180.98"/>
</g>
<!-- hier -->
<g id="node10" class="node">
<title>hier</title>
<polygon fill="#ffcdd2" stroke="black" points="1410.68,-340 1326.43,-340 1326.43,-304 1410.68,-304 1410.68,-340"/>
<text xml:space="preserve" text-anchor="start" x="1334.43" y="-322.6" font-family="Helvetica,sans-Serif" font-weight="bold" font-size="12.00">Hierarchical</text>
<text xml:space="preserve" text-anchor="start" x="1340.43" y="-312.5" font-family="Helvetica,sans-Serif" font-size="10.00">Ward linkage</text>
</g>
<!-- hub_red&#45;&gt;hier -->
<g id="edge20" class="edge">
<title>hub_red&#45;&gt;hier</title>
<path fill="none" stroke="black" d="M1248.26,-182.92C1257.34,-204.05 1292.55,-286 1292.55,-286 1292.55,-286 1304.54,-291.76 1318.94,-298.67"/>
<polygon fill="black" stroke="black" points="1317.28,-301.75 1327.81,-302.92 1320.31,-295.44 1317.28,-301.75"/>
</g>
<!-- kmeans -->
<g id="node11" class="node">
<title>kmeans</title>
<polygon fill="#ffcdd2" stroke="black" points="1401.68,-268 1335.43,-268 1335.43,-232 1401.68,-232 1401.68,-268"/>
<text xml:space="preserve" text-anchor="start" x="1343.43" y="-245.97" font-family="Helvetica,sans-Serif" font-weight="bold" font-size="12.00">K&#45;Means</text>
</g>
<!-- hub_red&#45;&gt;kmeans -->
<g id="edge21" class="edge">
<title>hub_red&#45;&gt;kmeans</title>
<path fill="none" stroke="black" d="M1250.11,-181.07C1261.33,-189.78 1292.55,-214 1292.55,-214 1292.55,-214 1308.22,-221.52 1325.24,-229.69"/>
<polygon fill="black" stroke="black" points="1323.41,-232.7 1333.94,-233.87 1326.44,-226.39 1323.41,-232.7"/>
</g>
<!-- kmed -->
<g id="node12" class="node">
<title>kmed</title>
<polygon fill="#ffcdd2" stroke="black" points="1407.3,-196 1329.8,-196 1329.8,-160 1407.3,-160 1407.3,-196"/>
<text xml:space="preserve" text-anchor="start" x="1337.8" y="-178.6" font-family="Helvetica,sans-Serif" font-weight="bold" font-size="12.00">K&#45;Medoids</text>
<text xml:space="preserve" text-anchor="start" x="1358.43" y="-168.5" font-family="Helvetica,sans-Serif" font-size="10.00">PAM</text>
</g>
<!-- hub_red&#45;&gt;kmed -->
<g id="edge22" class="edge">
<title>hub_red&#45;&gt;kmed</title>
<path fill="none" stroke="black" d="M1250.76,-178C1261.98,-178 1291.73,-178 1318.4,-178"/>
<polygon fill="black" stroke="black" points="1318.06,-181.5 1328.06,-178 1318.06,-174.5 1318.06,-181.5"/>
</g>
<!-- gmm -->
<g id="node13" class="node">
<title>gmm</title>
<polygon fill="#ffcdd2" stroke="black" points="1421.18,-124 1315.93,-124 1315.93,-88 1421.18,-88 1421.18,-124"/>
<text xml:space="preserve" text-anchor="start" x="1354.3" y="-106.6" font-family="Helvetica,sans-Serif" font-weight="bold" font-size="12.00">GMM</text>
<text xml:space="preserve" text-anchor="start" x="1323.93" y="-96.5" font-family="Helvetica,sans-Serif" font-size="10.00">full / tied / diag / sph</text>
</g>
<!-- hub_red&#45;&gt;gmm -->
<g id="edge23" class="edge">
<title>hub_red&#45;&gt;gmm</title>
<path fill="none" stroke="black" d="M1250.11,-174.93C1261.33,-166.22 1292.55,-142 1292.55,-142 1292.55,-142 1304.54,-136.24 1318.94,-129.33"/>
<polygon fill="black" stroke="black" points="1320.31,-132.56 1327.81,-125.08 1317.28,-126.25 1320.31,-132.56"/>
</g>
<!-- dbscan -->
<g id="node14" class="node">
<title>dbscan</title>
<polygon fill="#ffcdd2" stroke="black" points="1436.55,-52 1300.55,-52 1300.55,-16 1436.55,-16 1436.55,-52"/>
<text xml:space="preserve" text-anchor="start" x="1341.93" y="-34.6" font-family="Helvetica,sans-Serif" font-weight="bold" font-size="12.00">DBSCAN</text>
<text xml:space="preserve" text-anchor="start" x="1308.55" y="-24.5" font-family="Helvetica,sans-Serif" font-size="10.00">grid search ε, min_samples</text>
</g>
<!-- hub_red&#45;&gt;dbscan -->
<g id="edge24" class="edge">
<title>hub_red&#45;&gt;dbscan</title>
<path fill="none" stroke="black" d="M1248.26,-173.08C1257.34,-151.95 1292.55,-70 1292.55,-70 1292.55,-70 1304.54,-64.24 1318.94,-57.33"/>
<polygon fill="black" stroke="black" points="1320.31,-60.56 1327.81,-53.08 1317.28,-54.25 1320.31,-60.56"/>
</g>
<!-- kselect_sil -->
<g id="node15" class="node">
<title>kselect_sil</title>
<polygon fill="#fff9c4" stroke="black" points="1651.8,-237 1486.55,-237 1486.55,-197 1651.8,-197 1651.8,-237"/>
<text xml:space="preserve" text-anchor="start" x="1537.3" y="-222.6" font-family="Helvetica,sans-Serif" font-weight="bold" font-size="12.00">k&#45;Selection</text>
<text xml:space="preserve" text-anchor="start" x="1533.93" y="-212.5" font-family="Helvetica,sans-Serif" font-size="10.00">Silhouette score</text>
<text xml:space="preserve" text-anchor="start" x="1494.55" y="-202.5" font-family="Helvetica,sans-Serif" font-size="10.00">Hierarchical, K&#45;Means, K&#45;Medoids</text>
</g>
<!-- hier&#45;&gt;kselect_sil -->
<g id="edge25" class="edge">
<title>hier&#45;&gt;kselect_sil</title>
<path fill="none" stroke="black" d="M1407.93,-303.58C1426.38,-294.72 1444.55,-286 1444.55,-286 1444.55,-286 1486.94,-262.34 1522.08,-242.73"/>
<polygon fill="black" stroke="black" points="1523.4,-246 1530.43,-238.07 1519.99,-239.88 1523.4,-246"/>
</g>
<!-- kmeans&#45;&gt;hier -->
<!-- kmeans&#45;&gt;kselect_sil -->
<g id="edge26" class="edge">
<title>kmeans&#45;&gt;kselect_sil</title>
<path fill="none" stroke="black" d="M1401.9,-244.62C1421.91,-241.3 1448.7,-236.85 1474.93,-232.49"/>
<polygon fill="black" stroke="black" points="1475.33,-235.97 1484.62,-230.88 1474.18,-229.07 1475.33,-235.97"/>
</g>
<!-- kmed&#45;&gt;kmeans -->
<!-- kmed&#45;&gt;kselect_sil -->
<g id="edge27" class="edge">
<title>kmed&#45;&gt;kselect_sil</title>
<path fill="none" stroke="black" d="M1407.38,-185.43C1426.62,-189.21 1450.93,-193.98 1474.79,-198.66"/>
<polygon fill="black" stroke="black" points="1474.1,-202.09 1484.58,-200.59 1475.44,-195.23 1474.1,-202.09"/>
</g>
<!-- gmm&#45;&gt;kmed -->
<!-- kselect_bic -->
<g id="node16" class="node">
<title>kselect_bic</title>
<polygon fill="#fff9c4" stroke="black" points="1609.05,-127 1529.3,-127 1529.3,-87 1609.05,-87 1609.05,-127"/>
<text xml:space="preserve" text-anchor="start" x="1537.3" y="-112.6" font-family="Helvetica,sans-Serif" font-weight="bold" font-size="12.00">k&#45;Selection</text>
<text xml:space="preserve" text-anchor="start" x="1560.55" y="-102.5" font-family="Helvetica,sans-Serif" font-size="10.00">BIC</text>
<text xml:space="preserve" text-anchor="start" x="1557.18" y="-92.5" font-family="Helvetica,sans-Serif" font-size="10.00">GMM</text>
</g>
<!-- gmm&#45;&gt;kselect_bic -->
<g id="edge28" class="edge">
<title>gmm&#45;&gt;kselect_bic</title>
<path fill="none" stroke="black" d="M1421.48,-106.26C1451.21,-106.41 1488.34,-106.6 1517.81,-106.75"/>
<polygon fill="black" stroke="black" points="1517.57,-110.25 1527.59,-106.8 1517.61,-103.25 1517.57,-110.25"/>
</g>
<!-- dbscan&#45;&gt;gmm -->
<!-- assignments -->
<g id="node17" class="node">
<title>assignments</title>
<polygon fill="#e8e8e8" stroke="black" points="1937.55,-165 1701.8,-165 1701.8,-125 1937.55,-125 1937.55,-165"/>
<text xml:space="preserve" text-anchor="start" x="1760.05" y="-150.6" font-family="Helvetica,sans-Serif" font-weight="bold" font-size="12.00">Cluster Assignments</text>
<text xml:space="preserve" text-anchor="start" x="1709.8" y="-140.5" font-family="Helvetica,sans-Serif" font-size="10.00">hard labels (K&#45;Means, K&#45;Medoids, Hier, DBSCAN)</text>
<text xml:space="preserve" text-anchor="start" x="1767.55" y="-130.5" font-family="Helvetica,sans-Serif" font-size="10.00">soft probabilities (GMM)</text>
</g>
<!-- dbscan&#45;&gt;assignments -->
<g id="edge29" class="edge">
<title>dbscan&#45;&gt;assignments</title>
<path fill="none" stroke="black" d="M1436.8,-42.34C1520.28,-52.69 1651.8,-69 1651.8,-69 1651.8,-69 1714.92,-97.75 1763.52,-119.88"/>
<polygon fill="black" stroke="black" points="1762.03,-123.05 1772.58,-124.01 1764.93,-116.68 1762.03,-123.05"/>
</g>
<!-- kselect_sil&#45;&gt;assignments -->
<g id="edge30" class="edge">
<title>kselect_sil&#45;&gt;assignments</title>
<path fill="none" stroke="black" d="M1640.72,-196.56C1670.76,-187.86 1705.98,-177.65 1737.12,-168.63"/>
<polygon fill="black" stroke="black" points="1737.87,-172.06 1746.5,-165.91 1735.92,-165.33 1737.87,-172.06"/>
</g>
<!-- kselect_bic&#45;&gt;assignments -->
<g id="edge31" class="edge">
<title>kselect_bic&#45;&gt;assignments</title>
<path fill="none" stroke="black" d="M1609.28,-112.98C1631.46,-116.37 1660.61,-120.83 1690.09,-125.34"/>
<polygon fill="black" stroke="black" points="1689.48,-128.78 1699.89,-126.84 1690.54,-121.86 1689.48,-128.78"/>
</g>
<!-- ext_eval -->
<g id="node18" class="node">
<title>ext_eval</title>
<polygon fill="#b2ebf2" stroke="black" points="2149.8,-203 1987.55,-203 1987.55,-163 2149.8,-163 2149.8,-203"/>
<text xml:space="preserve" text-anchor="start" x="2013.18" y="-188.6" font-family="Helvetica,sans-Serif" font-weight="bold" font-size="12.00">External Evaluation</text>
<text xml:space="preserve" text-anchor="start" x="2047.68" y="-178.5" font-family="Helvetica,sans-Serif" font-size="10.00">ARI, NMI</text>
<text xml:space="preserve" text-anchor="start" x="1995.55" y="-168.5" font-family="Helvetica,sans-Serif" font-size="10.00">vs Phase / Round / Cohort / Role</text>
</g>
<!-- assignments&#45;&gt;ext_eval -->
<g id="edge32" class="edge">
<title>assignments&#45;&gt;ext_eval</title>
<path fill="none" stroke="black" d="M1938.03,-163.05C1950.8,-165.02 1963.65,-167 1976.05,-168.9"/>
<polygon fill="black" stroke="black" points="1975.38,-172.34 1985.8,-170.4 1976.45,-165.42 1975.38,-172.34"/>
</g>
<!-- disc -->
<g id="node19" class="node">
<title>disc</title>
<polygon fill="#ffe0b2" stroke="black" points="2143.8,-127 1993.55,-127 1993.55,-87 2143.8,-87 2143.8,-127"/>
<text xml:space="preserve" text-anchor="start" x="2001.55" y="-112.6" font-family="Helvetica,sans-Serif" font-weight="bold" font-size="12.00">Feature Discriminability</text>
<text xml:space="preserve" text-anchor="start" x="2003.8" y="-102.5" font-family="Helvetica,sans-Serif" font-size="10.00">Mann&#45;Whitney U + Cohen&#39;s d</text>
<text xml:space="preserve" text-anchor="start" x="2002.3" y="-92.5" font-family="Helvetica,sans-Serif" font-size="10.00">on original normalised features</text>
</g>
<!-- assignments&#45;&gt;disc -->
<g id="edge33" class="edge">
<title>assignments&#45;&gt;disc</title>
<path fill="none" stroke="black" d="M1938.03,-126.95C1952.86,-124.66 1967.81,-122.36 1982.02,-120.18"/>
<polygon fill="black" stroke="black" points="1982.39,-123.66 1991.74,-118.68 1981.32,-116.74 1982.39,-123.66"/>
</g>
<!-- leg_pre -->
<g id="node20" class="node">
<title>leg_pre</title>
<polygon fill="#c8e6c9" stroke="black" points="159.05,-346.2 65.45,-346.2 65.45,-331.8 159.05,-331.8 159.05,-346.2"/>
<text xml:space="preserve" text-anchor="middle" x="112.25" y="-335.32" font-family="Helvetica,sans-Serif" font-size="9.00">Preprocessing</text>
</g>
<!-- leg_red -->
<g id="node21" class="node">
<title>leg_red</title>
<polygon fill="#d1c4e9" stroke="black" points="397.93,-346.2 304.33,-346.2 304.33,-331.8 397.93,-331.8 397.93,-346.2"/>
<text xml:space="preserve" text-anchor="middle" x="351.13" y="-335.32" font-family="Helvetica,sans-Serif" font-size="9.00">Dim. Reduction</text>
</g>
<!-- leg_pre&#45;&gt;leg_red -->
<!-- leg_cl -->
<g id="node22" class="node">
<title>leg_cl</title>
<polygon fill="#ffcdd2" stroke="black" points="587.68,-346.2 494.08,-346.2 494.08,-331.8 587.68,-331.8 587.68,-346.2"/>
<text xml:space="preserve" text-anchor="middle" x="540.88" y="-335.32" font-family="Helvetica,sans-Serif" font-size="9.00">Clustering</text>
</g>
<!-- leg_red&#45;&gt;leg_cl -->
<!-- leg_k -->
<g id="node23" class="node">
<title>leg_k</title>
<polygon fill="#fff9c4" stroke="black" points="772.18,-346.2 678.58,-346.2 678.58,-331.8 772.18,-331.8 772.18,-346.2"/>
<text xml:space="preserve" text-anchor="middle" x="725.38" y="-335.32" font-family="Helvetica,sans-Serif" font-size="9.00">k&#45;Selection</text>
</g>
<!-- leg_cl&#45;&gt;leg_k -->
<!-- leg_eval -->
<g id="node24" class="node">
<title>leg_eval</title>
<polygon fill="#b2ebf2" stroke="black" points="970.55,-346.2 876.95,-346.2 876.95,-331.8 970.55,-331.8 970.55,-346.2"/>
<text xml:space="preserve" text-anchor="middle" x="923.75" y="-335.32" font-family="Helvetica,sans-Serif" font-size="9.00">Evaluation</text>
</g>
<!-- leg_k&#45;&gt;leg_eval -->
<!-- leg_disc -->
<g id="node25" class="node">
<title>leg_disc</title>
<polygon fill="#ffe0b2" stroke="black" points="1167.05,-346.2 1073.45,-346.2 1073.45,-331.8 1167.05,-331.8 1167.05,-346.2"/>
<text xml:space="preserve" text-anchor="middle" x="1120.25" y="-335.32" font-family="Helvetica,sans-Serif" font-size="9.00">Discriminability</text>
</g>
<!-- leg_eval&#45;&gt;leg_disc -->
</g>
</svg>
