<?xml version="1.0" encoding="UTF-8" standalone="no"?>
<!DOCTYPE svg PUBLIC "-//W3C//DTD SVG 1.1//EN"
 "http://www.w3.org/Graphics/SVG/1.1/DTD/svg11.dtd">
<!-- Generated by graphviz version 14.1.4 (20260321.0153)
 -->
<!-- Title: cda2_pipeline Pages: 1 -->
<svg width="2203pt" height="384pt"
 viewBox="0.00 0.00 2203.00 384.00" xmlns="http://www.w3.org/2000/svg" xmlns:xlink="http://www.w3.org/1999/xlink">
<g id="graph0" class="graph" transform="scale(1 1) rotate(0) translate(4 380)">
<title>cda2_pipeline</title>
<polygon fill="white" stroke="none" points="-4,4 -4,-380 2198.8,-380 2198.8,4 -4,4"/>
<g id="clust1" class="cluster">
<title>cluster_preprocess</title>
<polygon fill="none" stroke="#aaaaaa" stroke-dasharray="5,2" points="266.5,-150 266.5,-226 1008.75,-226 1008.75,-150 266.5,-150"/>
<text xml:space="preserve" text-anchor="middle" x="309" y="-211.55" font-family="Helvetica,sans-Serif" font-size="11.00">Preprocessing</text>
</g>
<g id="clust2" class="cluster">
<title>cluster_reduction</title>
<polygon fill="none" stroke="#aaaaaa" stroke-dasharray="5,2" points="1042.75,-74 1042.75,-302 1197.75,-302 1197.75,-74 1042.75,-74"/>
<text xml:space="preserve" text-anchor="middle" x="1111.5" y="-287.55" font-family="Helvetica,sans-Serif" font-size="11.00">Dimensionality Reduction</text>
</g>
<g id="clust4" class="cluster">
<title>cluster_clustering</title>
<polygon fill="none" stroke="#aaaaaa" stroke-dasharray="5,2" points="1292.55,-8 1292.55,-368 1444.55,-368 1444.55,-8 1292.55,-8"/>
<text xml:space="preserve" text-anchor="middle" x="1324.93" y="-353.55" font-family="Helvetica,sans-Serif" font-size="11.00">Clustering</text>
</g>
<g id="clust6" class="cluster">
<title>cluster_legend</title>
<polygon fill="none" stroke="#aaaaaa" stroke-dasharray="5,2" points="57.45,-324 57.45,-354 1175.05,-354 1175.05,-324 57.45,-324"/>
</g>
<!-- input -->
<g id="node1" class="node">
<title>input</title>
<polygon fill="#e8e8e8" stroke="black" points="224.5,-198 0,-198 0,-158 224.5,-158 224.5,-198"/>
<text xml:space="preserve" text-anchor="start" x="69.12" y="-183.6" font-family="Helvetica,sans-Serif" font-weight="bold" font-size="12.00">HR_data_2.csv</text>
<text xml:space="preserve" text-anchor="start" x="8" y="-173.5" font-family="Helvetica,sans-Serif" font-size="10.00">312 obs (26 participants × 4 rounds × 3 phases)</text>
<text xml:space="preserve" text-anchor="start" x="67.25" y="-163.5" font-family="Helvetica,sans-Serif" font-size="10.00">51 biosignal features</text>
</g>
<!-- exclude -->
<g id="node2" class="node">
<title>exclude</title>
<polygon fill="#c8e6c9" stroke="black" points="427.75,-196 274.5,-196 274.5,-160 427.75,-160 427.75,-196"/>
<text xml:space="preserve" text-anchor="start" x="327.88" y="-178.6" font-family="Helvetica,sans-Serif" font-weight="bold" font-size="12.00">Exclude</text>
<text xml:space="preserve" text-anchor="start" x="282.5" y="-168.5" font-family="Helvetica,sans-Serif" font-size="10.00">metadata + questionnaire items</text>
</g>
<!-- input&#45;&gt;exclude -->
<g id="edge9" class="edge">
<title>input&#45;&gt;exclude</title>
<path fill="none" stroke="black" d="M224.75,-178C237.52,-178 250.4,-178 262.79,-178"/>
<polygon fill="black" stroke="black" points="262.5,-181.5 272.5,-178 262.5,-174.5 262.5,-181.5"/>
</g>
<!-- impute -->
<g id="node3" class="node">
<title>impute</title>
<polygon fill="#c8e6c9" stroke="black" points="604,-196 477.75,-196 477.75,-160 604,-160 604,-196"/>
<text xml:space="preserve" text-anchor="start" x="510.5" y="-178.6" font-family="Helvetica,sans-Serif" font-weight="bold" font-size="12.00">Imputation</text>
<text xml:space="preserve" text-anchor="start" x="485.75" y="-168.5" font-family="Helvetica,sans-Serif" font-size="10.00">within&#45;Phase group mean</text>
</g>
<!-- exclude&#45;&gt;impute -->
<g id="edge1" class="edge">
<title>exclude&#45;&gt;impute</title>
<path fill="none" stroke="black" d="M428.22,-178C440.75,-178 453.72,-178 466.19,-178"/>
<polygon fill="black" stroke="black" points="465.96,-181.5 475.96,-178 465.96,-174.5 465.96,-181.5"/>
</g>
<!-- dedup -->
<g id="node4" class="node">
<title>dedup</title>
<polygon fill="#c8e6c9" stroke="black" points="796.75,-196 654,-196 654,-160 796.75,-160 796.75,-196"/>
<text xml:space="preserve" text-anchor="start" x="662" y="-178.6" font-family="Helvetica,sans-Serif" font-weight="bold" font-size="12.00">Redundancy Removal</text>
<text xml:space="preserve" text-anchor="start" x="695.38" y="-168.5" font-family="Helvetica,sans-Serif" font-size="10.00">drop |r| &gt; 0.95</text>
</g>
<!-- impute&#45;&gt;dedup -->
<g id="edge2" class="edge">
<title>impute&#45;&gt;dedup</title>
<path fill="none" stroke="black" d="M604.43,-178C616.72,-178 629.78,-178 642.59,-178"/>
<polygon fill="black" stroke="black" points="642.25,-181.5 652.25,-178 642.25,-174.5 642.25,-181.5"/>
</g>
<!-- norm -->
<g id="node5" class="node">
<title>norm</title>
<polygon fill="#c8e6c9" stroke="black" points="1000.75,-198 846.75,-198 846.75,-158 1000.75,-158 1000.75,-198"/>
<text xml:space="preserve" text-anchor="start" x="854.75" y="-183.6" font-family="Helvetica,sans-Serif" font-weight="bold" font-size="12.00">Individual Normalisation</text>
<text xml:space="preserve" text-anchor="start" x="875.38" y="-173.5" font-family="Helvetica,sans-Serif" font-size="10.00">z&#45;score per participant</text>
<text xml:space="preserve" text-anchor="start" x="888.13" y="-163.5" font-family="Helvetica,sans-Serif" font-style="italic" font-size="10.00">states, not traits</text>
</g>
<!-- dedup&#45;&gt;norm -->
<g id="edge3" class="edge">
<title>dedup&#45;&gt;norm</title>
<path fill="none" stroke="black" d="M796.99,-178C809.41,-178 822.47,-178 835.28,-178"/>
<polygon fill="black" stroke="black" points="834.94,-181.5 844.94,-178 834.94,-174.5 834.94,-181.5"/>
</g>
<!-- pca -->
<g id="node6" class="node">
<title>pca</title>
<polygon fill="#d1c4e9" stroke="black" points="1161.63,-122 1078.88,-122 1078.88,-82 1161.63,-82 1161.63,-122"/>
<text xml:space="preserve" text-anchor="start" x="1107.13" y="-107.6" font-family="Helvetica,sans-Serif" font-weight="bold" font-size="12.00">PCA</text>
<text xml:space="preserve" text-anchor="start" x="1086.88" y="-97.5" font-family="Helvetica,sans-Serif" font-size="10.00">16 components</text>
<text xml:space="preserve" text-anchor="start" x="1088" y="-87.5" font-family="Helvetica,sans-Serif" font-size="10.00">≥80% variance</text>
</g>
<!-- norm&#45;&gt;pca -->
<g id="edge10" class="edge">
<title>norm&#45;&gt;pca</title>
<path fill="none" stroke="black" d="M977.13,-157.53C1005.36,-146.5 1040.06,-132.94 1068.1,-121.98"/>
<polygon fill="black" stroke="black" points="1069.05,-125.37 1077.09,-118.47 1066.5,-118.85 1069.05,-125.37"/>
</g>
<!-- spca -->
<g id="node7" class="node">
<title>spca</title>
<polygon fill="#d1c4e9" stroke="black" points="1173.25,-198 1067.25,-198 1067.25,-158 1173.25,-158 1173.25,-198"/>
<text xml:space="preserve" text-anchor="start" x="1086.88" y="-183.6" font-family="Helvetica,sans-Serif" font-weight="bold" font-size="12.00">SparsePCA</text>
<text xml:space="preserve" text-anchor="start" x="1075.25" y="-173.5" font-family="Helvetica,sans-Serif" font-size="10.00">16 components, α=1</text>
<text xml:space="preserve" text-anchor="start" x="1079.38" y="-163.5" font-family="Helvetica,sans-Serif" font-size="10.00">L1&#45;sparse loadings</text>
</g>
<!-- norm&#45;&gt;spca -->
<g id="edge11" class="edge">
<title>norm&#45;&gt;spca</title>
<path fill="none" stroke="black" d="M1001.06,-178C1019.14,-178 1038.22,-178 1055.66,-178"/>
<polygon fill="black" stroke="black" points="1055.34,-181.5 1065.34,-178 1055.34,-174.5 1055.34,-181.5"/>
</g>
<!-- umap -->
<g id="node8" class="node">
<title>umap</title>
<polygon fill="#d1c4e9" stroke="black" points="1189.75,-274 1050.75,-274 1050.75,-234 1189.75,-234 1189.75,-274"/>
<text xml:space="preserve" text-anchor="start" x="1102.25" y="-259.6" font-family="Helvetica,sans-Serif" font-weight="bold" font-size="12.00">UMAP</text>
<text xml:space="preserve" text-anchor="start" x="1086.88" y="-249.5" font-family="Helvetica,sans-Serif" font-size="10.00">10 components</text>
<text xml:space="preserve" text-anchor="start" x="1058.75" y="-239.5" font-family="Helvetica,sans-Serif" font-size="10.00">n_neighbors=50, min_dist=0</text>
</g>
<!-- norm&#45;&gt;umap -->
<g id="edge12" class="edge">
<title>norm&#45;&gt;umap</title>
<path fill="none" stroke="black" d="M977.13,-198.47C1001.54,-208.01 1030.79,-219.44 1056.39,-229.44"/>
<polygon fill="black" stroke="black" points="1055.12,-232.7 1065.71,-233.08 1057.67,-226.18 1055.12,-232.7"/>
</g>
<!-- hub_red -->
<g id="node9" class="node">
<title>hub_red</title>
<ellipse fill="#888888" stroke="black" cx="1245.15" cy="-178" rx="5.4" ry="5.4"/>
</g>
<!-- pca&#45;&gt;hub_red -->
<g id="edge13" class="edge">
<title>pca&#45;&gt;hub_red</title>
<path fill="none" stroke="black" d="M1161.74,-122.11C1180.09,-131.23 1197.75,-140 1197.75,-140 1197.75,-140 1229.57,-166.06 1240.51,-175.02"/>
</g>
<!-- spca&#45;&gt;hub_red -->
<g id="edge14" class="edge">
<title>spca&#45;&gt;hub_red</title>
<path fill="none" stroke="black" d="M1173.73,-178C1199.82,-178 1228.13,-178 1239.26,-178"/>
</g>
<!-- umap&#45;&gt;hub_red -->
<g id="edge15" class="edge">
<title>umap&#45;&gt;hub_red</title>
<path fill="none" stroke="black" d="M1162.19,-233.67C1180.38,-224.63 1197.75,-216 1197.75,-216 1197.75,-216 1229.57,-189.94 1240.51,-180.98"/>
</g>
<!-- hier -->
<g id="node10" class="node">
<title>hier</title>
<polygon fill="#ffcdd2" stroke="black" points="1410.68,-52 1326.43,-52 1326.43,-16 1410.68,-16 1410.68,-52"/>
<text xml:space="preserve" text-anchor="start" x="1334.43" y="-34.6" font-family="Helvetica,sans-Serif" font-weight="bold" font-size="12.00">Hierarchical</text>
<text xml:space="preserve" text-anchor="start" x="1340.43" y="-24.5" font-family="Helvetica,sans-Serif" font-size="10.00">Ward linkage</text>
</g>
<!-- hub_red&#45;&gt;hier -->
<g id="edge16" class="edge">
<title>hub_red&#45;&gt;hier</title>
<path fill="none" stroke="black" d="M1248.26,-173.08C1257.34,-151.95 1292.55,-70 1292.55,-70 1292.55,-70 1304.54,-64.24 1318.94,-57.33"/>
<polygon fill="black" stroke="black" points="1320.31,-60.56 1327.81,-53.08 1317.28,-54.25 1320.31,-60.56"/>
</g>
<!-- dbscan -->
<g id="node11" class="node">
<title>dbscan</title>
<polygon fill="#ffcdd2" stroke="black" points="1436.55,-124 1300.55,-124 1300.55,-88 1436.55,-88 1436.55,-124"/>
<text xml:space="preserve" text-anchor="start" x="1341.93" y="-106.6" font-family="Helvetica,sans-Serif" font-weight="bold" font-size="12.00">DBSCAN</text>
<text xml:space="preserve" text-anchor="start" x="1308.55" y="-96.5" font-family="Helvetica,sans-Serif" font-size="10.00">grid search ε, min_samples</text>
</g>
<!-- hub_red&#45;&gt;dbscan -->
<g id="edge17" class="edge">
<title>hub_red&#45;&gt;dbscan</title>
<path fill="none" stroke="black" d="M1250.11,-174.93C1261.33,-166.22 1292.55,-142 1292.55,-142 1292.55,-142 1304.54,-136.24 1318.94,-129.33"/>
<polygon fill="black" stroke="black" points="1320.31,-132.56 1327.81,-125.08 1317.28,-126.25 1320.31,-132.56"/>
</g>
<!-- kmeans -->
<g id="node12" class="node">
<title>kmeans</title>
<polygon fill="#ffcdd2" stroke="black" points="1401.68,-196 1335.43,-196 1335.43,-160 1401.68,-160 1401.68,-196"/>
<text xml:space="preserve" text-anchor="start" x="1343.43" y="-173.97" font-family="Helvetica,sans-Serif" font-weight="bold" font-size="12.00">K&#45;Means</text>
</g>
<!-- hub_red&#45;&gt;kmeans -->
<g id="edge18" class="edge">
<title>hub_red&#45;&gt;kmeans</title>
<path fill="none" stroke="black" d="M1250.76,-178C1262.75,-178 1295.92,-178 1323.86,-178"/>
<polygon fill="black" stroke="black" points="1323.53,-181.5 1333.53,-178 1323.53,-174.5 1323.53,-181.5"/>
</g>
<!-- kmed -->
<g id="node13" class="node">
<title>kmed</title>
<polygon fill="#ffcdd2" stroke="black" points="1407.3,-268 1329.8,-268 1329.8,-232 1407.3,-232 1407.3,-268"/>
<text xml:space="preserve" text-anchor="start" x="1337.8" y="-250.6" font-family="Helvetica,sans-Serif" font-weight="bold" font-size="12.00">K&#45;Medoids</text>
<text xml:space="preserve" text-anchor="start" x="1358.43" y="-240.5" font-family="Helvetica,sans-Serif" font-size="10.00">PAM</text>
</g>
<!-- hub_red&#45;&gt;kmed -->
<g id="edge19" class="edge">
<title>hub_red&#45;&gt;kmed</title>
<path fill="none" stroke="black" d="M1250.11,-181.07C1261.33,-189.78 1292.55,-214 1292.55,-214 1292.55,-214 1304.74,-219.85 1319.28,-226.83"/>
<polygon fill="black" stroke="black" points="1317.72,-229.96 1328.25,-231.13 1320.75,-223.65 1317.72,-229.96"/>
</g>
<!-- gmm -->
<g id="node14" class="node">
<title>gmm</title>
<polygon fill="#ffcdd2" stroke="black" points="1421.18,-340 1315.93,-340 1315.93,-304 1421.18,-304 1421.18,-340"/>
<text xml:space="preserve" text-anchor="start" x="1354.3" y="-322.6" font-family="Helvetica,sans-Serif" font-weight="bold" font-size="12.00">GMM</text>
<text xml:space="preserve" text-anchor="start" x="1323.93" y="-312.5" font-family="Helvetica,sans-Serif" font-size="10.00">full / tied / diag / sph</text>
</g>
<!-- hub_red&#45;&gt;gmm -->
<g id="edge20" class="edge">
<title>hub_red&#45;&gt;gmm</title>
<path fill="none" stroke="black" d="M1248.26,-182.92C1257.34,-204.05 1292.55,-286 1292.55,-286 1292.55,-286 1304.54,-291.76 1318.94,-298.67"/>
<polygon fill="black" stroke="black" points="1317.28,-301.75 1327.81,-302.92 1320.31,-295.44 1317.28,-301.75"/>
</g>
<!-- kselect -->
<g id="node15" class="node">
<title>kselect</title>
<polygon fill="#fff9c4" stroke="black" points="1696.8,-198 1486.55,-198 1486.55,-158 1696.8,-158 1696.8,-198"/>
<text xml:space="preserve" text-anchor="start" x="1559.8" y="-183.6" font-family="Helvetica,sans-Serif" font-weight="bold" font-size="12.00">k&#45;Selection</text>
<text xml:space="preserve" text-anchor="start" x="1494.55" y="-173.5" font-family="Helvetica,sans-Serif" font-size="10.00">Silhouette score (Hier, K&#45;Means, K&#45;Medoids)</text>
<text xml:space="preserve" text-anchor="start" x="1509.93" y="-163.5" font-family="Helvetica,sans-Serif" font-size="10.00">BIC (GMM) — labels never consulted</text>
</g>
<!-- hier&#45;&gt;kselect -->
<g id="edge21" class="edge">
<title>hier&#45;&gt;kselect</title>
<path fill="none" stroke="black" d="M1407.93,-52.42C1426.38,-61.28 1444.55,-70 1444.55,-70 1444.55,-70 1510.78,-118.95 1554.07,-150.94"/>
<polygon fill="black" stroke="black" points="1551.85,-153.66 1561.97,-156.79 1556.01,-148.03 1551.85,-153.66"/>
</g>
<!-- dbscan&#45;&gt;kselect -->
<g id="edge22" class="edge">
<title>dbscan&#45;&gt;kselect</title>
<path fill="none" stroke="black" d="M1426.21,-124.45C1453.9,-133.47 1487.57,-144.43 1517.21,-154.08"/>
<polygon fill="black" stroke="black" points="1515.9,-157.33 1526.49,-157.1 1518.07,-150.68 1515.9,-157.33"/>
</g>
<!-- kmeans&#45;&gt;kselect -->
<g id="edge23" class="edge">
<title>kmeans&#45;&gt;kselect</title>
<path fill="none" stroke="black" d="M1401.7,-178C1421.5,-178 1448.19,-178 1475.28,-178"/>
<polygon fill="black" stroke="black" points="1474.97,-181.5 1484.97,-178 1474.97,-174.5 1474.97,-181.5"/>
</g>
<!-- kmed&#45;&gt;kselect -->
<g id="edge24" class="edge">
<title>kmed&#45;&gt;kselect</title>
<path fill="none" stroke="black" d="M1407.56,-237.62C1437.68,-227.82 1480.66,-213.82 1517.42,-201.85"/>
<polygon fill="black" stroke="black" points="1518.24,-205.27 1526.66,-198.84 1516.07,-198.61 1518.24,-205.27"/>
</g>
<!-- gmm&#45;&gt;kselect -->
<g id="edge25" class="edge">
<title>gmm&#45;&gt;kselect</title>
<path fill="none" stroke="black" d="M1407.93,-303.58C1426.38,-294.72 1444.55,-286 1444.55,-286 1444.55,-286 1510.78,-237.05 1554.07,-205.06"/>
<polygon fill="black" stroke="black" points="1556.01,-207.97 1561.97,-199.21 1551.85,-202.34 1556.01,-207.97"/>
</g>
<!-- assignments -->
<g id="node16" class="node">
<title>assignments</title>
<polygon fill="#e8e8e8" stroke="black" points="1982.55,-198 1746.8,-198 1746.8,-158 1982.55,-158 1982.55,-198"/>
<text xml:space="preserve" text-anchor="start" x="1805.05" y="-183.6" font-family="Helvetica,sans-Serif" font-weight="bold" font-size="12.00">Cluster Assignments</text>
<text xml:space="preserve" text-anchor="start" x="1754.8" y="-173.5" font-family="Helvetica,sans-Serif" font-size="10.00">hard labels (K&#45;Means, K&#45;Medoids, Hier, DBSCAN)</text>
<text xml:space="preserve" text-anchor="start" x="1812.55" y="-163.5" font-family="Helvetica,sans-Serif" font-size="10.00">soft probabilities (GMM)</text>
</g>
<!-- kselect&#45;&gt;assignments -->
<g id="edge26" class="edge">
<title>kselect&#45;&gt;assignments</title>
<path fill="none" stroke="black" d="M1697.06,-178C1709.63,-178 1722.58,-178 1735.44,-178"/>
<polygon fill="black" stroke="black" points="1735.2,-181.5 1745.2,-178 1735.2,-174.5 1735.2,-181.5"/>
</g>
<!-- ext_eval -->
<g id="node17" class="node">
<title>ext_eval</title>
<polygon fill="#b2ebf2" stroke="black" points="2194.8,-236 2032.55,-236 2032.55,-196 2194.8,-196 2194.8,-236"/>
<text xml:space="preserve" text-anchor="start" x="2058.18" y="-221.6" font-family="Helvetica,sans-Serif" font-weight="bold" font-size="12.00">External Evaluation</text>
<text xml:space="preserve" text-anchor="start" x="2092.68" y="-211.5" font-family="Helvetica,sans-Serif" font-size="10.00">ARI, NMI</text>
<text xml:space="preserve" text-anchor="start" x="2040.55" y="-201.5" font-family="Helvetica,sans-Serif" font-size="10.00">vs Phase / Round / Cohort / Role</text>
</g>
<!-- assignments&#45;&gt;ext_eval -->
<g id="edge27" class="edge">
<title>assignments&#45;&gt;ext_eval</title>
<path fill="none" stroke="black" d="M1983.03,-196.05C1995.8,-198.02 2008.65,-200 2021.05,-201.9"/>
<polygon fill="black" stroke="black" points="2020.38,-205.34 2030.8,-203.4 2021.45,-198.42 2020.38,-205.34"/>
</g>
<!-- disc -->
<g id="node18" class="node">
<title>disc</title>
<polygon fill="#ffe0b2" stroke="black" points="2188.8,-160 2038.55,-160 2038.55,-120 2188.8,-120 2188.8,-160"/>
<text xml:space="preserve" text-anchor="start" x="2046.55" y="-145.6" font-family="Helvetica,sans-Serif" font-weight="bold" font-size="12.00">Feature Discriminability</text>
<text xml:space="preserve" text-anchor="start" x="2048.8" y="-135.5" font-family="Helvetica,sans-Serif" font-size="10.00">Mann&#45;Whitney U + Cohen&#39;s d</text>
<text xml:space="preserve" text-anchor="start" x="2047.3" y="-125.5" font-family="Helvetica,sans-Serif" font-size="10.00">on original normalised features</text>
</g>
<!-- assignments&#45;&gt;disc -->
<g id="edge28" class="edge">
<title>assignments&#45;&gt;disc</title>
<path fill="none" stroke="black" d="M1983.03,-159.95C1997.86,-157.66 2012.81,-155.36 2027.02,-153.18"/>
<polygon fill="black" stroke="black" points="2027.39,-156.66 2036.74,-151.68 2026.32,-149.74 2027.39,-156.66"/>
</g>
<!-- leg_pre -->
<g id="node19" class="node">
<title>leg_pre</title>
<polygon fill="#c8e6c9" stroke="black" points="159.05,-346.2 65.45,-346.2 65.45,-331.8 159.05,-331.8 159.05,-346.2"/>
<text xml:space="preserve" text-anchor="middle" x="112.25" y="-335.32" font-family="Helvetica,sans-Serif" font-size="9.00">Preprocessing</text>
</g>
<!-- leg_red -->
<g id="node20" class="node">
<title>leg_red</title>
<polygon fill="#d1c4e9" stroke="black" points="397.93,-346.2 304.33,-346.2 304.33,-331.8 397.93,-331.8 397.93,-346.2"/>
<text xml:space="preserve" text-anchor="middle" x="351.13" y="-335.32" font-family="Helvetica,sans-Serif" font-size="9.00">Dim. Reduction</text>
</g>
<!-- leg_pre&#45;&gt;leg_red -->
<!-- leg_cl -->
<g id="node21" class="node">
<title>leg_cl</title>
<polygon fill="#ffcdd2" stroke="black" points="587.68,-346.2 494.08,-346.2 494.08,-331.8 587.68,-331.8 587.68,-346.2"/>
<text xml:space="preserve" text-anchor="middle" x="540.88" y="-335.32" font-family="Helvetica,sans-Serif" font-size="9.00">Clustering</text>
</g>
<!-- leg_red&#45;&gt;leg_cl -->
<!-- leg_k -->
<g id="node22" class="node">
<title>leg_k</title>
<polygon fill="#fff9c4" stroke="black" points="772.18,-346.2 678.58,-346.2 678.58,-331.8 772.18,-331.8 772.18,-346.2"/>
<text xml:space="preserve" text-anchor="middle" x="725.38" y="-335.32" font-family="Helvetica,sans-Serif" font-size="9.00">k&#45;Selection</text>
</g>
<!-- leg_cl&#45;&gt;leg_k -->
<!-- leg_eval -->
<g id="node23" class="node">
<title>leg_eval</title>
<polygon fill="#b2ebf2" stroke="black" points="970.55,-346.2 876.95,-346.2 876.95,-331.8 970.55,-331.8 970.55,-346.2"/>
<text xml:space="preserve" text-anchor="middle" x="923.75" y="-335.32" font-family="Helvetica,sans-Serif" font-size="9.00">Evaluation</text>
</g>
<!-- leg_k&#45;&gt;leg_eval -->
<!-- leg_disc -->
<g id="node24" class="node">
<title>leg_disc</title>
<polygon fill="#ffe0b2" stroke="black" points="1167.05,-346.2 1073.45,-346.2 1073.45,-331.8 1167.05,-331.8 1167.05,-346.2"/>
<text xml:space="preserve" text-anchor="middle" x="1120.25" y="-335.32" font-family="Helvetica,sans-Serif" font-size="9.00">Discriminability</text>
</g>
<!-- leg_eval&#45;&gt;leg_disc -->
</g>
</svg>
